<svg width="102" height="32" viewBox="0 0 102 32" fill="none" xmlns="http://www.w3.org/2000/svg">
<path fill-rule="evenodd" clip-rule="evenodd" d="M5.16321 15.6513C4.35185 15.6513 3.68801 14.9875 3.68801 14.1761C3.68801 13.3648 4.35185 12.7009 5.16321 12.7009C5.97457 12.7009 6.63841 13.3648 6.63841 14.1761C6.63841 14.9875 5.97457 15.6513 5.16321 15.6513ZM7.376 10.4881C7.376 9.67673 8.03984 9.01288 8.8512 9.01288C9.66256 9.01288 10.3264 9.67673 10.3264 10.4881C10.3264 11.2995 9.66256 11.9633 8.8512 11.9633C8.03984 11.9633 7.376 11.2995 7.376 10.4881ZM11.064 14.1761C11.064 13.3648 11.7279 12.7009 12.5392 12.7009C13.3506 12.7009 14.0144 13.3648 14.0144 14.1761C14.0144 14.9875 13.3506 15.6513 12.5392 15.6513C11.7279 15.6513 11.064 14.9875 11.064 14.1761ZM0 17.8641C0 17.0528 0.663841 16.3889 1.4752 16.3889C2.28656 16.3889 2.9504 17.0528 2.9504 17.8641C2.9504 18.6755 2.28656 19.3393 1.4752 19.3393C0.663841 19.3393 0 18.6755 0 17.8641ZM14.752 17.8641C14.752 17.0528 15.4158 16.3889 16.2272 16.3889C17.0386 16.3889 17.7024 17.0528 17.7024 17.8641C17.7024 18.6755 17.0386 19.3393 16.2272 19.3393C15.4158 19.3393 14.752 18.6755 14.752 17.8641ZM5.16321 19.3249C4.35185 19.3249 3.68801 18.6611 3.68801 17.8497C3.68801 17.0384 4.35185 16.3745 5.16321 16.3745C5.97457 16.3745 6.63841 17.0384 6.63841 17.8497C6.63841 18.6611 5.97457 19.3249 5.16321 19.3249ZM7.376 14.1617C7.376 13.3503 8.03984 12.6865 8.8512 12.6865C9.66256 12.6865 10.3264 13.3503 10.3264 14.1617C10.3264 14.9731 9.66256 15.6369 8.8512 15.6369C8.03984 15.6369 7.376 14.9731 7.376 14.1617ZM11.064 17.8497C11.064 17.0384 11.7279 16.3745 12.5392 16.3745C13.3506 16.3745 14.0144 17.0384 14.0144 17.8497C14.0144 18.6611 13.3506 19.3249 12.5392 19.3249C11.7279 19.3249 11.064 18.6611 11.064 17.8497ZM0 21.5377C0 20.7264 0.663841 20.0625 1.4752 20.0625C2.28656 20.0625 2.9504 20.7264 2.9504 21.5377C2.9504 22.3491 2.28656 23.0129 1.4752 23.0129C0.663841 23.0129 0 22.3491 0 21.5377ZM14.752 21.5377C14.752 20.7264 15.4158 20.0625 16.2272 20.0625C17.0386 20.0625 17.7024 20.7264 17.7024 21.5377C17.7024 22.3491 17.0386 23.0129 16.2272 23.0129C15.4158 23.0129 14.752 22.3491 14.752 21.5377ZM24.256 22.521L29.5184 9.50444H31.8427L37.1237 22.521H34.9295L33.5037 18.7648H27.776L26.3572 22.521H24.256ZM31.0617 12.3309L32.8756 17.1098H28.4011L30.2064 12.3309C30.2436 12.2317 30.2807 12.1387 30.3179 12.052C30.3675 11.9528 30.4047 11.8536 30.4295 11.7544C30.479 11.6553 30.5163 11.5561 30.541 11.4569L30.6526 11.1594L30.7642 11.4941C30.8014 11.6057 30.8447 11.7173 30.8944 11.8288L30.9687 12.0891C31.0059 12.1635 31.0369 12.2441 31.0617 12.3309ZM38.0782 22.521V13.521H39.9192V14.0602V14.2276V14.4321C39.9068 14.4817 39.9006 14.5375 39.9006 14.5995V14.7668C40.1485 14.3206 40.5142 13.9549 40.9977 13.6697C41.4812 13.3722 42.0328 13.2235 42.6526 13.2235C43.3345 13.2235 43.9171 13.366 44.4006 13.6511C44.8964 13.9363 45.2745 14.3515 45.5349 14.897C45.7952 15.4425 45.9253 16.0871 45.9253 16.8309V22.521H44.0845V17.0912C44.0845 16.2978 43.9296 15.7028 43.6196 15.3061C43.3097 14.897 42.8386 14.6925 42.2064 14.6925C41.7477 14.6925 41.3448 14.804 40.9977 15.0272C40.6506 15.2379 40.3841 15.5354 40.1982 15.9197C40.0121 16.2916 39.9192 16.7007 39.9192 17.147V22.521H38.0782ZM50.0304 22.3536C50.4394 22.5395 50.9106 22.6325 51.4436 22.6325C51.6667 22.6325 51.8775 22.6201 52.0758 22.5953C52.2866 22.5705 52.4602 22.5395 52.5965 22.5024V21.0148C52.361 21.052 52.1379 21.0706 51.9271 21.0706C51.6295 21.0706 51.3816 21.0209 51.1833 20.9218C50.9973 20.8226 50.8548 20.6677 50.7556 20.4569C50.6564 20.2462 50.6069 19.9734 50.6069 19.6387V15.0086H52.5965V13.521H50.6069V10.4342H48.7473V13.521H46.925V15.0086H48.7473V19.8619C48.7473 20.5065 48.8589 21.0395 49.082 21.461C49.3176 21.8701 49.6336 22.1677 50.0304 22.3536ZM53.9839 11.9404V9.85774H56.0293V11.9404H53.9839ZM54.0954 21.0148V15.0086V13.521H55.0066H55.9363V21.0148V22.521H54.0954V21.0148ZM58.1544 13.521V22.521H59.9953V17.2586C59.9953 16.7751 60.082 16.3412 60.2556 15.9569C60.4292 15.5602 60.671 15.2503 60.9808 15.0272C61.2907 14.804 61.6441 14.6925 62.0408 14.6925C62.6358 14.6925 63.0696 14.9094 63.3424 15.3433C63.6152 15.7648 63.7514 16.3784 63.7514 17.1842V22.521H65.6109V17.2028C65.6109 16.7317 65.6915 16.3102 65.8527 15.9383C66.0138 15.554 66.2494 15.2503 66.5593 15.0272C66.8693 14.804 67.2288 14.6925 67.6378 14.6925C68.2453 14.6925 68.6854 14.9032 68.958 15.3247C69.2433 15.7462 69.3858 16.3598 69.3858 17.1656V22.521H71.2267V16.8309C71.2267 16.0623 71.0903 15.4053 70.8176 14.8598C70.5573 14.3144 70.1916 13.9053 69.7205 13.6325C69.2494 13.3598 68.7101 13.2235 68.1027 13.2235C67.4828 13.2235 66.9126 13.3846 66.392 13.7069C65.8837 14.0168 65.4747 14.4321 65.1647 14.9528C64.9292 14.4197 64.582 13.9982 64.1234 13.6883C63.6771 13.3784 63.1688 13.2235 62.5986 13.2235C62.0159 13.2235 61.5015 13.366 61.0552 13.6511C60.609 13.9363 60.2495 14.3082 59.9767 14.7668V14.5995C59.9891 14.5499 59.9953 14.4941 59.9953 14.4321V14.2648V14.116V13.521H58.1544ZM77.2498 22.8185C76.3573 22.8185 75.5763 22.6325 74.9069 22.2607C74.2375 21.8764 73.7168 21.3247 73.3449 20.6057C72.973 19.8867 72.7871 19.0127 72.7871 17.9838C72.7871 17.0664 72.973 16.2482 73.3449 15.5292C73.7292 14.7978 74.2499 14.2338 74.9069 13.8371C75.5763 13.428 76.3264 13.2235 77.1569 13.2235C78.0495 13.2235 78.8119 13.4218 79.4441 13.8185C80.0763 14.2028 80.5597 14.7606 80.8945 15.492C81.2292 16.2111 81.3966 17.054 81.3966 18.021V18.4115H74.6651C74.6776 19.0065 74.7954 19.5272 75.0185 19.9734C75.2416 20.4197 75.5453 20.7669 75.9296 21.0148C76.3264 21.2504 76.7726 21.368 77.2684 21.368C77.8387 21.368 78.3222 21.2318 78.7189 20.959C79.1279 20.6863 79.3759 20.2585 79.4627 19.6759H81.3222C81.2602 20.2585 81.0618 20.7916 80.7272 21.2751C80.3924 21.7462 79.9275 22.1243 79.3326 22.4094C78.7499 22.6822 78.0556 22.8185 77.2498 22.8185ZM79.4441 17.0912C79.4441 16.3474 79.2395 15.7524 78.8305 15.3061C78.4213 14.8598 77.8635 14.6367 77.1569 14.6367C76.4751 14.6367 75.9049 14.8722 75.4462 15.3433C74.9999 15.802 74.7457 16.3846 74.6837 17.0912H79.4441ZM85.0065 22.3536C85.4155 22.5395 85.8866 22.6325 86.4197 22.6325C86.6428 22.6325 86.8535 22.6201 87.0519 22.5953C87.2627 22.5705 87.4362 22.5395 87.5726 22.5024V21.0148C87.337 21.052 87.1139 21.0706 86.9032 21.0706C86.6056 21.0706 86.3577 21.0209 86.1594 20.9218C85.9734 20.8226 85.8309 20.6677 85.7317 20.4569C85.6325 20.2462 85.5829 19.9734 85.5829 19.6387V15.0086H87.5726V13.521H85.5829V10.4342H83.7234V13.521H81.9011V15.0086H83.7234V19.8619C83.7234 20.5065 83.835 21.0395 84.0581 21.461C84.2936 21.8701 84.6098 22.1677 85.0065 22.3536ZM91.6562 22.8185C91.0983 22.8185 90.5778 22.7069 90.0943 22.4838C89.6231 22.2607 89.2451 21.9384 88.9599 21.5169C88.6872 21.0954 88.5508 20.6057 88.5508 20.0478C88.5508 19.1925 88.8422 18.5416 89.4248 18.0953C90.0074 17.6367 90.776 17.3329 91.7306 17.1842L93.4228 16.9239C93.6582 16.8867 93.8443 16.8371 93.9806 16.7751C94.117 16.7007 94.2161 16.6077 94.2781 16.4962C94.3401 16.3846 94.3711 16.242 94.3711 16.0685C94.3711 15.6346 94.2161 15.2875 93.9063 15.0272C93.5963 14.7668 93.1872 14.6367 92.679 14.6367C92.0715 14.6367 91.5942 14.7916 91.2472 15.1015C90.9001 15.4115 90.7079 15.833 90.6707 16.366H88.7926C88.8298 15.7834 89.0034 15.2565 89.3133 14.7854C89.6231 14.302 90.0571 13.9239 90.6148 13.6511C91.1727 13.366 91.8174 13.2235 92.5488 13.2235C93.3422 13.2235 94.0116 13.366 94.5571 13.6511C95.1025 13.9363 95.5116 14.3515 95.7843 14.897C96.057 15.4425 96.1934 16.0933 96.1934 16.8495V22.521H94.4454V22.0932C94.4454 21.9693 94.4517 21.8392 94.464 21.7028C94.4765 21.5664 94.4826 21.43 94.4826 21.2937C94.2472 21.7772 93.8877 22.1552 93.4042 22.428C92.9207 22.6883 92.3381 22.8185 91.6562 22.8185ZM92.0282 21.4052C92.462 21.4052 92.8587 21.3123 93.2183 21.1263C93.5901 20.928 93.8752 20.6553 94.0736 20.3082C94.2843 19.9487 94.3897 19.5396 94.3897 19.0809V17.8908C94.3278 17.9652 94.21 18.0334 94.0364 18.0953C93.8752 18.1573 93.6521 18.2193 93.367 18.2813L92.2884 18.4858C91.7182 18.5974 91.2658 18.7772 90.931 19.0251C90.6087 19.2606 90.4475 19.5891 90.4475 20.0106C90.4475 20.4321 90.5964 20.773 90.8938 21.0334C91.2038 21.2813 91.5818 21.4052 92.0282 21.4052ZM98.3058 11.0106V21.0148V22.521H100.147V21.0148V9.50444H99.217H98.3058V11.0106Z" fill="#212631"/>
</svg>
