<svg width="21" height="20" viewBox="0 0 21 20" fill="none" xmlns="http://www.w3.org/2000/svg">
<mask id="mask0_53_4198" style="mask-type:alpha" maskUnits="userSpaceOnUse" x="1" y="4" width="19" height="13">
<path d="M15.4956 9.21002C15.4985 9.14037 15.4999 9.07035 15.4999 9C15.4999 6.23858 13.2613 4 10.4999 4C8.30958 4 6.44819 5.40841 5.77197 7.369C3.62081 7.6445 1.95825 9.48226 1.95825 11.7083C1.95825 14.1246 3.91701 16.0833 6.33325 16.0833H15.6041C17.5026 16.0833 19.0416 14.5443 19.0416 12.6458C19.0416 10.7474 17.5026 9.20833 15.6041 9.20833C15.5678 9.20833 15.5316 9.2089 15.4956 9.21002Z" fill="#464D5C" fill-opacity="0.8"/>
</mask>
<g mask="url(#mask0_53_4198)">
<path d="M2.75 5C3.16421 5 3.5 4.66421 3.5 4.25C3.5 3.83579 3.16421 3.5 2.75 3.5C2.33579 3.5 2 3.83579 2 4.25C2 4.66421 2.33579 5 2.75 5Z" fill="#464D5C" fill-opacity="0.6"/>
<path d="M5.25 5C5.66421 5 6 4.66421 6 4.25C6 3.83579 5.66421 3.5 5.25 3.5C4.83579 3.5 4.5 3.83579 4.5 4.25C4.5 4.66421 4.83579 5 5.25 5Z" fill="#464D5C" fill-opacity="0.9"/>
<path d="M7.75 5C8.16421 5 8.5 4.66421 8.5 4.25C8.5 3.83579 8.16421 3.5 7.75 3.5C7.33579 3.5 7 3.83579 7 4.25C7 4.66421 7.33579 5 7.75 5Z" fill="#464D5C" fill-opacity="0.7"/>
<path d="M10.25 5C10.6642 5 11 4.66421 11 4.25C11 3.83579 10.6642 3.5 10.25 3.5C9.83579 3.5 9.5 3.83579 9.5 4.25C9.5 4.66421 9.83579 5 10.25 5Z" fill="#464D5C" fill-opacity="0.6"/>
<path d="M12.75 5C13.1642 5 13.5 4.66421 13.5 4.25C13.5 3.83579 13.1642 3.5 12.75 3.5C12.3358 3.5 12 3.83579 12 4.25C12 4.66421 12.3358 5 12.75 5Z" fill="#464D5C" fill-opacity="0.4"/>
<path d="M15.25 5C15.6642 5 16 4.66421 16 4.25C16 3.83579 15.6642 3.5 15.25 3.5C14.8358 3.5 14.5 3.83579 14.5 4.25C14.5 4.66421 14.8358 5 15.25 5Z" fill="#464D5C" fill-opacity="0.5"/>
<path d="M17.75 5C18.1642 5 18.5 4.66421 18.5 4.25C18.5 3.83579 18.1642 3.5 17.75 3.5C17.3358 3.5 17 3.83579 17 4.25C17 4.66421 17.3358 5 17.75 5Z" fill="#464D5C" fill-opacity="0.6"/>
<path d="M2.75 7.5C3.16421 7.5 3.5 7.16421 3.5 6.75C3.5 6.33579 3.16421 6 2.75 6C2.33579 6 2 6.33579 2 6.75C2 7.16421 2.33579 7.5 2.75 7.5Z" fill="#464D5C" fill-opacity="0.8"/>
<path d="M5.25 7.5C5.66421 7.5 6 7.16421 6 6.75C6 6.33579 5.66421 6 5.25 6C4.83579 6 4.5 6.33579 4.5 6.75C4.5 7.16421 4.83579 7.5 5.25 7.5Z" fill="#464D5C" fill-opacity="0.6"/>
<path d="M7.75 7.5C8.16421 7.5 8.5 7.16421 8.5 6.75C8.5 6.33579 8.16421 6 7.75 6C7.33579 6 7 6.33579 7 6.75C7 7.16421 7.33579 7.5 7.75 7.5Z" fill="#464D5C" fill-opacity="0.4"/>
<path d="M10.25 7.5C10.6642 7.5 11 7.16421 11 6.75C11 6.33579 10.6642 6 10.25 6C9.83579 6 9.5 6.33579 9.5 6.75C9.5 7.16421 9.83579 7.5 10.25 7.5Z" fill="#464D5C" fill-opacity="0.4"/>
<path d="M12.75 7.5C13.1642 7.5 13.5 7.16421 13.5 6.75C13.5 6.33579 13.1642 6 12.75 6C12.3358 6 12 6.33579 12 6.75C12 7.16421 12.3358 7.5 12.75 7.5Z" fill="#464D5C" fill-opacity="0.8"/>
<path d="M15.25 7.5C15.6642 7.5 16 7.16421 16 6.75C16 6.33579 15.6642 6 15.25 6C14.8358 6 14.5 6.33579 14.5 6.75C14.5 7.16421 14.8358 7.5 15.25 7.5Z" fill="#464D5C" fill-opacity="0.7"/>
<path d="M17.75 7.5C18.1642 7.5 18.5 7.16421 18.5 6.75C18.5 6.33579 18.1642 6 17.75 6C17.3358 6 17 6.33579 17 6.75C17 7.16421 17.3358 7.5 17.75 7.5Z" fill="#464D5C" fill-opacity="0.5"/>
<path d="M2.75 10C3.16421 10 3.5 9.66421 3.5 9.25C3.5 8.83579 3.16421 8.5 2.75 8.5C2.33579 8.5 2 8.83579 2 9.25C2 9.66421 2.33579 10 2.75 10Z" fill="#464D5C" fill-opacity="0.8"/>
<path d="M5.25 10C5.66421 10 6 9.66421 6 9.25C6 8.83579 5.66421 8.5 5.25 8.5C4.83579 8.5 4.5 8.83579 4.5 9.25C4.5 9.66421 4.83579 10 5.25 10Z" fill="#464D5C" fill-opacity="0.8"/>
<path d="M7.75 10C8.16421 10 8.5 9.66421 8.5 9.25C8.5 8.83579 8.16421 8.5 7.75 8.5C7.33579 8.5 7 8.83579 7 9.25C7 9.66421 7.33579 10 7.75 10Z" fill="#464D5C" fill-opacity="0.6"/>
<path d="M10.25 10C10.6642 10 11 9.66421 11 9.25C11 8.83579 10.6642 8.5 10.25 8.5C9.83579 8.5 9.5 8.83579 9.5 9.25C9.5 9.66421 9.83579 10 10.25 10Z" fill="#464D5C" fill-opacity="0.6"/>
<path d="M12.75 10C13.1642 10 13.5 9.66421 13.5 9.25C13.5 8.83579 13.1642 8.5 12.75 8.5C12.3358 8.5 12 8.83579 12 9.25C12 9.66421 12.3358 10 12.75 10Z" fill="#464D5C" fill-opacity="0.9"/>
<path d="M15.25 10C15.6642 10 16 9.66421 16 9.25C16 8.83579 15.6642 8.5 15.25 8.5C14.8358 8.5 14.5 8.83579 14.5 9.25C14.5 9.66421 14.8358 10 15.25 10Z" fill="#464D5C" fill-opacity="0.5"/>
<path d="M17.75 10C18.1642 10 18.5 9.66421 18.5 9.25C18.5 8.83579 18.1642 8.5 17.75 8.5C17.3358 8.5 17 8.83579 17 9.25C17 9.66421 17.3358 10 17.75 10Z" fill="#464D5C" fill-opacity="0.9"/>
<path d="M2.75 12.5C3.16421 12.5 3.5 12.1642 3.5 11.75C3.5 11.3358 3.16421 11 2.75 11C2.33579 11 2 11.3358 2 11.75C2 12.1642 2.33579 12.5 2.75 12.5Z" fill="#464D5C" fill-opacity="0.9"/>
<path d="M5.25 12.5C5.66421 12.5 6 12.1642 6 11.75C6 11.3358 5.66421 11 5.25 11C4.83579 11 4.5 11.3358 4.5 11.75C4.5 12.1642 4.83579 12.5 5.25 12.5Z" fill="#464D5C" fill-opacity="0.6"/>
<path d="M7.75 12.5C8.16421 12.5 8.5 12.1642 8.5 11.75C8.5 11.3358 8.16421 11 7.75 11C7.33579 11 7 11.3358 7 11.75C7 12.1642 7.33579 12.5 7.75 12.5Z" fill="#464D5C" fill-opacity="0.9"/>
<path d="M10.25 12.5C10.6642 12.5 11 12.1642 11 11.75C11 11.3358 10.6642 11 10.25 11C9.83579 11 9.5 11.3358 9.5 11.75C9.5 12.1642 9.83579 12.5 10.25 12.5Z" fill="#464D5C" fill-opacity="0.6"/>
<path d="M12.75 12.5C13.1642 12.5 13.5 12.1642 13.5 11.75C13.5 11.3358 13.1642 11 12.75 11C12.3358 11 12 11.3358 12 11.75C12 12.1642 12.3358 12.5 12.75 12.5Z" fill="#464D5C" fill-opacity="0.8"/>
<path d="M15.25 12.5C15.6642 12.5 16 12.1642 16 11.75C16 11.3358 15.6642 11 15.25 11C14.8358 11 14.5 11.3358 14.5 11.75C14.5 12.1642 14.8358 12.5 15.25 12.5Z" fill="#464D5C" fill-opacity="0.4"/>
<path d="M17.75 12.5C18.1642 12.5 18.5 12.1642 18.5 11.75C18.5 11.3358 18.1642 11 17.75 11C17.3358 11 17 11.3358 17 11.75C17 12.1642 17.3358 12.5 17.75 12.5Z" fill="#464D5C" fill-opacity="0.9"/>
<path d="M2.75 15C3.16421 15 3.5 14.6642 3.5 14.25C3.5 13.8358 3.16421 13.5 2.75 13.5C2.33579 13.5 2 13.8358 2 14.25C2 14.6642 2.33579 15 2.75 15Z" fill="#464D5C" fill-opacity="0.9"/>
<path d="M5.25 15C5.66421 15 6 14.6642 6 14.25C6 13.8358 5.66421 13.5 5.25 13.5C4.83579 13.5 4.5 13.8358 4.5 14.25C4.5 14.6642 4.83579 15 5.25 15Z" fill="#464D5C" fill-opacity="0.7"/>
<path d="M7.75 15C8.16421 15 8.5 14.6642 8.5 14.25C8.5 13.8358 8.16421 13.5 7.75 13.5C7.33579 13.5 7 13.8358 7 14.25C7 14.6642 7.33579 15 7.75 15Z" fill="#464D5C" fill-opacity="0.7"/>
<path d="M10.25 15C10.6642 15 11 14.6642 11 14.25C11 13.8358 10.6642 13.5 10.25 13.5C9.83579 13.5 9.5 13.8358 9.5 14.25C9.5 14.6642 9.83579 15 10.25 15Z" fill="#464D5C" fill-opacity="0.7"/>
<path d="M12.75 15C13.1642 15 13.5 14.6642 13.5 14.25C13.5 13.8358 13.1642 13.5 12.75 13.5C12.3358 13.5 12 13.8358 12 14.25C12 14.6642 12.3358 15 12.75 15Z" fill="#464D5C" fill-opacity="0.9"/>
<path d="M15.25 15C15.6642 15 16 14.6642 16 14.25C16 13.8358 15.6642 13.5 15.25 13.5C14.8358 13.5 14.5 13.8358 14.5 14.25C14.5 14.6642 14.8358 15 15.25 15Z" fill="#464D5C" fill-opacity="0.8"/>
<path d="M17.75 15C18.1642 15 18.5 14.6642 18.5 14.25C18.5 13.8358 18.1642 13.5 17.75 13.5C17.3358 13.5 17 13.8358 17 14.25C17 14.6642 17.3358 15 17.75 15Z" fill="#464D5C" fill-opacity="0.8"/>
<path d="M2.75 17.5C3.16421 17.5 3.5 17.1642 3.5 16.75C3.5 16.3358 3.16421 16 2.75 16C2.33579 16 2 16.3358 2 16.75C2 17.1642 2.33579 17.5 2.75 17.5Z" fill="#464D5C" fill-opacity="0.7"/>
<path d="M5.25 17.5C5.66421 17.5 6 17.1642 6 16.75C6 16.3358 5.66421 16 5.25 16C4.83579 16 4.5 16.3358 4.5 16.75C4.5 17.1642 4.83579 17.5 5.25 17.5Z" fill="#464D5C" fill-opacity="0.4"/>
<path d="M7.75 17.5C8.16421 17.5 8.5 17.1642 8.5 16.75C8.5 16.3358 8.16421 16 7.75 16C7.33579 16 7 16.3358 7 16.75C7 17.1642 7.33579 17.5 7.75 17.5Z" fill="#464D5C" fill-opacity="0.4"/>
<path d="M10.25 17.5C10.6642 17.5 11 17.1642 11 16.75C11 16.3358 10.6642 16 10.25 16C9.83579 16 9.5 16.3358 9.5 16.75C9.5 17.1642 9.83579 17.5 10.25 17.5Z" fill="#464D5C" fill-opacity="0.4"/>
<path d="M12.75 17.5C13.1642 17.5 13.5 17.1642 13.5 16.75C13.5 16.3358 13.1642 16 12.75 16C12.3358 16 12 16.3358 12 16.75C12 17.1642 12.3358 17.5 12.75 17.5Z" fill="#464D5C" fill-opacity="0.8"/>
<path d="M15.25 17.5C15.6642 17.5 16 17.1642 16 16.75C16 16.3358 15.6642 16 15.25 16C14.8358 16 14.5 16.3358 14.5 16.75C14.5 17.1642 14.8358 17.5 15.25 17.5Z" fill="#464D5C" fill-opacity="0.7"/>
<path d="M17.75 17.5C18.1642 17.5 18.5 17.1642 18.5 16.75C18.5 16.3358 18.1642 16 17.75 16C17.3358 16 17 16.3358 17 16.75C17 17.1642 17.3358 17.5 17.75 17.5Z" fill="#464D5C" fill-opacity="0.5"/>
</g>
<path d="M15.4955 9.16827C15.4984 9.09862 15.4999 9.02861 15.4999 8.95825C15.4999 6.19683 13.2613 3.95825 10.4999 3.95825C8.30958 3.95825 6.4482 5.36666 5.77197 7.32726C3.62081 7.60275 1.95825 9.44051 1.95825 11.6666C1.95825 14.0828 3.91701 16.0416 6.33325 16.0416H15.604C17.5025 16.0416 19.0415 14.5026 19.0415 12.6041C19.0415 10.7056 17.5025 9.16658 15.604 9.16658C15.5677 9.16658 15.5316 9.16715 15.4955 9.16827Z" stroke="#464D5C" stroke-width="1.5" stroke-linecap="round" stroke-linejoin="round"/>
</svg>
