<svg width="1280" height="480" viewBox="0 0 1280 480" fill="none" xmlns="http://www.w3.org/2000/svg">
<rect width="1216" height="480" transform="translate(32)" fill="#E9EAEB"/>
<rect x="264" y="220" width="560" height="336.709" rx="28.3544" fill="url(#paint0_linear_141_2014)"/>
<rect x="264.886" y="220.886" width="558.228" height="334.937" rx="27.4684" stroke="url(#paint1_linear_141_2014)" stroke-opacity="0.3" stroke-width="1.77215"/>
<rect x="715.898" y="471.646" width="80.3376" height="56.7089" rx="7.08861" fill="white" fill-opacity="0.1"/>
<path d="M293.842 469.835V454.524H300.03C300.179 454.524 300.364 454.531 300.583 454.545C300.803 454.552 301.012 454.574 301.211 454.609C302.061 454.744 302.77 455.034 303.337 455.481C303.911 455.928 304.34 456.491 304.624 457.172C304.907 457.852 305.049 458.604 305.049 459.426C305.049 460.255 304.907 461.01 304.624 461.691C304.34 462.371 303.911 462.935 303.337 463.381C302.77 463.828 302.061 464.118 301.211 464.253C301.012 464.282 300.8 464.303 300.573 464.317C300.353 464.331 300.172 464.338 300.03 464.338H296.064V469.835H293.842ZM296.064 462.233H299.945C300.087 462.233 300.243 462.226 300.413 462.212C300.59 462.197 300.757 462.173 300.913 462.137C301.367 462.031 301.732 461.836 302.008 461.552C302.285 461.262 302.483 460.929 302.604 460.553C302.724 460.177 302.784 459.802 302.784 459.426C302.784 459.05 302.724 458.678 302.604 458.309C302.483 457.934 302.285 457.604 302.008 457.321C301.732 457.03 301.367 456.831 300.913 456.725C300.757 456.683 300.59 456.654 300.413 456.64C300.243 456.626 300.087 456.619 299.945 456.619H296.064V462.233ZM308.238 469.835V454.524H310.46V461.127H318.116V454.524H320.349V469.835H318.116V463.222H310.46V469.835H308.238ZM330.79 470.154C329.259 470.154 327.954 469.821 326.877 469.155C325.799 468.482 324.973 467.546 324.399 466.348C323.832 465.15 323.549 463.761 323.549 462.18C323.549 460.599 323.832 459.21 324.399 458.012C324.973 456.814 325.799 455.882 326.877 455.215C327.954 454.542 329.259 454.205 330.79 454.205C332.314 454.205 333.614 454.542 334.692 455.215C335.777 455.882 336.602 456.814 337.169 458.012C337.737 459.21 338.02 460.599 338.02 462.18C338.02 463.761 337.737 465.15 337.169 466.348C336.602 467.546 335.777 468.482 334.692 469.155C333.614 469.821 332.314 470.154 330.79 470.154ZM330.79 468.038C331.874 468.053 332.774 467.815 333.49 467.326C334.213 466.83 334.756 466.142 335.117 465.263C335.479 464.377 335.66 463.349 335.66 462.18C335.66 461.01 335.479 459.989 335.117 459.117C334.756 458.238 334.213 457.554 333.49 457.065C332.774 456.576 331.874 456.328 330.79 456.321C329.705 456.307 328.801 456.544 328.078 457.033C327.362 457.523 326.824 458.21 326.462 459.096C326.101 459.982 325.916 461.01 325.909 462.18C325.902 463.349 326.079 464.374 326.441 465.253C326.802 466.125 327.345 466.805 328.068 467.294C328.798 467.783 329.705 468.031 330.79 468.038ZM341.204 469.835V454.524H350.987V456.619H343.427V460.914H349.711V463.009H343.427V467.741H350.987V469.835H341.204ZM354.603 469.835V454.524H356.858L364.396 465.901V454.524H366.65V469.835H364.396L356.858 458.448V469.835H354.603ZM370.894 469.835V454.524H373.116V469.835H370.894ZM376.097 469.835L381.318 462.084L376.235 454.524H378.957L382.689 460.202L386.4 454.524H389.133L384.05 462.084L389.26 469.835H386.538L382.689 463.977L378.829 469.835H376.097ZM397.339 469.835V454.524H403.357C404.328 454.524 405.143 454.723 405.802 455.119C406.462 455.516 406.958 456.03 407.291 456.661C407.624 457.285 407.791 457.944 407.791 458.639C407.791 459.483 407.582 460.206 407.163 460.808C406.752 461.411 406.196 461.822 405.494 462.042L405.473 461.521C406.451 461.762 407.202 462.233 407.727 462.935C408.251 463.629 408.514 464.441 408.514 465.37C408.514 466.27 408.333 467.053 407.971 467.719C407.617 468.386 407.096 468.907 406.408 469.283C405.728 469.651 404.902 469.835 403.931 469.835H397.339ZM399.593 467.719H403.591C404.094 467.719 404.544 467.624 404.941 467.432C405.345 467.241 405.661 466.968 405.887 466.614C406.121 466.252 406.238 465.823 406.238 465.327C406.238 464.866 406.136 464.452 405.93 464.083C405.731 463.707 405.441 463.413 405.058 463.201C404.682 462.981 404.239 462.871 403.729 462.871H399.593V467.719ZM399.593 460.776H403.325C403.736 460.776 404.105 460.695 404.431 460.532C404.764 460.362 405.026 460.121 405.218 459.809C405.416 459.49 405.515 459.107 405.515 458.66C405.515 458.065 405.317 457.576 404.92 457.193C404.523 456.81 403.991 456.619 403.325 456.619H399.593V460.776ZM410.63 469.835L415.606 454.524H418.806L423.783 469.835H421.475L416.892 455.864H417.467L412.937 469.835H410.63ZM413.214 466.38V464.296H421.209V466.38H413.214ZM426.754 469.835V454.524H428.976V461.669L435.387 454.524H438.152L431.379 461.999L438.652 469.835H435.802L428.976 462.52V469.835H426.754ZM441.212 469.835V454.524H450.994V456.619H443.434V460.914H449.718V463.009H443.434V467.741H450.994V469.835H441.212ZM454.611 469.835V454.524H460.799C460.948 454.524 461.132 454.531 461.352 454.545C461.572 454.552 461.781 454.574 461.98 454.609C462.83 454.744 463.539 455.034 464.106 455.481C464.68 455.928 465.109 456.491 465.393 457.172C465.676 457.852 465.818 458.604 465.818 459.426C465.818 460.645 465.506 461.698 464.882 462.584C464.259 463.463 463.323 464.012 462.075 464.232L461.171 464.338H456.833V469.835H454.611ZM463.564 469.835L460.544 463.605L462.788 463.03L466.105 469.835H463.564ZM456.833 462.233H460.714C460.856 462.233 461.012 462.226 461.182 462.212C461.359 462.197 461.526 462.173 461.682 462.137C462.135 462.031 462.501 461.836 462.777 461.552C463.053 461.262 463.252 460.929 463.372 460.553C463.493 460.177 463.553 459.802 463.553 459.426C463.553 459.05 463.493 458.678 463.372 458.309C463.252 457.934 463.053 457.604 462.777 457.321C462.501 457.03 462.135 456.831 461.682 456.725C461.526 456.683 461.359 456.654 461.182 456.64C461.012 456.626 460.856 456.619 460.714 456.619H456.833V462.233Z" fill="white"/>
<path d="M314.476 261.821H318.212V275.294C318.212 276.771 317.863 278.07 317.165 279.191C316.473 280.312 315.5 281.188 314.245 281.819C312.99 282.443 311.523 282.755 309.845 282.755C308.16 282.755 306.69 282.443 305.434 281.819C304.179 281.188 303.206 280.312 302.514 279.191C301.823 278.07 301.477 276.771 301.477 275.294V261.821H305.213V274.982C305.213 275.841 305.401 276.606 305.777 277.277C306.159 277.949 306.696 278.476 307.388 278.858C308.079 279.234 308.898 279.422 309.845 279.422C310.791 279.422 311.61 279.234 312.302 278.858C313 278.476 313.537 277.949 313.913 277.277C314.288 276.606 314.476 275.841 314.476 274.982V261.821ZM325.756 273.381V282.443H322.111V266.977H325.595V269.605H325.776C326.132 268.739 326.699 268.051 327.478 267.541C328.263 267.031 329.233 266.775 330.388 266.775C331.455 266.775 332.385 267.004 333.177 267.46C333.976 267.917 334.594 268.578 335.03 269.444C335.473 270.31 335.691 271.36 335.684 272.595V282.443H332.039V273.159C332.039 272.125 331.771 271.317 331.234 270.733C330.704 270.149 329.969 269.857 329.029 269.857C328.391 269.857 327.824 269.998 327.327 270.279C326.837 270.555 326.451 270.954 326.169 271.478C325.894 272.001 325.756 272.636 325.756 273.381ZM347.113 266.977V269.796H338.222V266.977H347.113ZM340.417 263.271H344.062V277.791C344.062 278.281 344.136 278.657 344.283 278.919C344.438 279.174 344.639 279.348 344.887 279.442C345.136 279.536 345.411 279.583 345.713 279.583C345.941 279.583 346.149 279.566 346.337 279.533C346.532 279.499 346.68 279.469 346.78 279.442L347.395 282.292C347.2 282.359 346.921 282.433 346.559 282.513C346.203 282.594 345.767 282.641 345.25 282.654C344.337 282.681 343.515 282.544 342.783 282.241C342.051 281.933 341.471 281.456 341.041 280.812C340.618 280.167 340.41 279.362 340.417 278.395V263.271ZM350.161 282.443V266.977H353.806V282.443H350.161ZM351.994 264.782C351.416 264.782 350.92 264.59 350.503 264.208C350.087 263.818 349.879 263.352 349.879 262.808C349.879 262.258 350.087 261.791 350.503 261.409C350.92 261.019 351.416 260.825 351.994 260.825C352.578 260.825 353.074 261.019 353.484 261.409C353.9 261.791 354.108 262.258 354.108 262.808C354.108 263.352 353.9 263.818 353.484 264.208C353.074 264.59 352.578 264.782 351.994 264.782ZM365.277 266.977V269.796H356.386V266.977H365.277ZM358.581 263.271H362.226V277.791C362.226 278.281 362.3 278.657 362.448 278.919C362.602 279.174 362.804 279.348 363.052 279.442C363.3 279.536 363.576 279.583 363.878 279.583C364.106 279.583 364.314 279.566 364.502 279.533C364.697 279.499 364.844 279.469 364.945 279.442L365.559 282.292C365.365 282.359 365.086 282.433 364.723 282.513C364.368 282.594 363.931 282.641 363.415 282.654C362.502 282.681 361.679 282.544 360.948 282.241C360.216 281.933 359.635 281.456 359.206 280.812C358.783 280.167 358.575 279.362 358.581 278.395V263.271ZM372.303 261.821V282.443H368.658V261.821H372.303ZM382.898 282.745C381.347 282.745 380.008 282.423 378.881 281.778C377.76 281.127 376.897 280.208 376.293 279.019C375.689 277.825 375.387 276.418 375.387 274.8C375.387 273.21 375.689 271.813 376.293 270.612C376.904 269.403 377.756 268.464 378.85 267.792C379.945 267.114 381.23 266.775 382.707 266.775C383.66 266.775 384.56 266.93 385.405 267.239C386.258 267.541 387.01 268.011 387.661 268.648C388.319 269.286 388.836 270.098 389.211 271.085C389.587 272.065 389.775 273.233 389.775 274.589V275.707H377.098V273.25H386.281C386.275 272.552 386.124 271.931 385.828 271.387C385.533 270.837 385.12 270.404 384.59 270.088C384.066 269.773 383.455 269.615 382.757 269.615C382.012 269.615 381.358 269.796 380.794 270.159C380.23 270.514 379.79 270.984 379.475 271.568C379.166 272.146 379.008 272.78 379.001 273.471V275.616C379.001 276.516 379.166 277.288 379.495 277.932C379.824 278.57 380.284 279.06 380.874 279.402C381.465 279.738 382.156 279.905 382.948 279.905C383.479 279.905 383.959 279.832 384.388 279.684C384.818 279.53 385.191 279.305 385.506 279.009C385.822 278.714 386.06 278.348 386.221 277.912L389.624 278.294C389.409 279.194 389 279.979 388.396 280.651C387.798 281.315 387.033 281.832 386.1 282.201C385.167 282.564 384.1 282.745 382.898 282.745ZM398.598 282.715C397.383 282.715 396.296 282.403 395.336 281.778C394.376 281.154 393.617 280.248 393.06 279.06C392.503 277.872 392.225 276.428 392.225 274.73C392.225 273.012 392.507 271.562 393.07 270.38C393.641 269.192 394.41 268.296 395.376 267.692C396.343 267.081 397.42 266.775 398.608 266.775C399.515 266.775 400.26 266.93 400.844 267.239C401.428 267.541 401.891 267.907 402.233 268.336C402.576 268.759 402.841 269.158 403.029 269.534H403.18V261.821H406.835V282.443H403.25V280.006H403.029C402.841 280.382 402.569 280.781 402.213 281.204C401.857 281.621 401.387 281.976 400.803 282.272C400.219 282.567 399.484 282.715 398.598 282.715ZM399.615 279.724C400.387 279.724 401.045 279.516 401.589 279.1C402.133 278.677 402.545 278.09 402.827 277.338C403.109 276.586 403.25 275.71 403.25 274.71C403.25 273.71 403.109 272.84 402.827 272.102C402.552 271.364 402.143 270.79 401.599 270.38C401.062 269.971 400.401 269.766 399.615 269.766C398.803 269.766 398.125 269.977 397.581 270.4C397.038 270.823 396.628 271.407 396.353 272.152C396.078 272.897 395.94 273.75 395.94 274.71C395.94 275.676 396.078 276.539 396.353 277.298C396.635 278.049 397.048 278.643 397.591 279.08C398.142 279.509 398.816 279.724 399.615 279.724ZM412.964 282.664C412.353 282.664 411.83 282.45 411.394 282.02C410.957 281.59 410.742 281.067 410.749 280.449C410.742 279.845 410.957 279.328 411.394 278.899C411.83 278.469 412.353 278.254 412.964 278.254C413.555 278.254 414.069 278.469 414.505 278.899C414.948 279.328 415.173 279.845 415.179 280.449C415.173 280.859 415.065 281.231 414.857 281.567C414.656 281.902 414.387 282.171 414.052 282.372C413.723 282.567 413.36 282.664 412.964 282.664Z" fill="white"/>
<path d="M575.369 470.154C574.327 470.154 573.406 469.928 572.605 469.474C571.804 469.013 571.173 468.382 570.712 467.581C570.258 466.78 570.031 465.859 570.031 464.817V459.543C570.031 458.501 570.258 457.579 570.712 456.778C571.173 455.977 571.804 455.35 572.605 454.896C573.406 454.435 574.327 454.205 575.369 454.205C576.411 454.205 577.333 454.435 578.134 454.896C578.935 455.35 579.562 455.977 580.016 456.778C580.476 457.579 580.707 458.501 580.707 459.543V464.817C580.707 465.859 580.476 466.78 580.016 467.581C579.562 468.382 578.935 469.013 578.134 469.474C577.333 469.928 576.411 470.154 575.369 470.154ZM575.369 468.028C575.936 468.028 576.45 467.893 576.911 467.624C577.379 467.347 577.751 466.979 578.027 466.518C578.304 466.05 578.442 465.529 578.442 464.955V459.383C578.442 458.816 578.304 458.302 578.027 457.842C577.751 457.374 577.379 457.005 576.911 456.736C576.45 456.459 575.936 456.321 575.369 456.321C574.802 456.321 574.285 456.459 573.817 456.736C573.356 457.005 572.987 457.374 572.711 457.842C572.434 458.302 572.296 458.816 572.296 459.383V464.955C572.296 465.529 572.434 466.05 572.711 466.518C572.987 466.979 573.356 467.347 573.817 467.624C574.285 467.893 574.802 468.028 575.369 468.028ZM590.002 470.154C589.01 470.154 588.117 469.921 587.323 469.453C586.529 468.978 585.898 468.329 585.43 467.507C584.969 466.685 584.739 465.749 584.739 464.7V459.819C584.739 458.706 584.969 457.728 585.43 456.885C585.898 456.041 586.543 455.385 587.365 454.917C588.195 454.45 589.148 454.216 590.225 454.216C591.034 454.216 591.792 454.368 592.501 454.673C593.21 454.978 593.823 455.431 594.34 456.034L592.714 457.554C592.423 457.179 592.058 456.881 591.618 456.661C591.186 456.434 590.722 456.321 590.225 456.321C589.587 456.321 589.027 456.473 588.545 456.778C588.063 457.076 587.684 457.469 587.408 457.958C587.138 458.448 587.004 458.972 587.004 459.532V462.339L586.568 461.85C587.007 461.276 587.553 460.822 588.205 460.489C588.857 460.156 589.556 459.989 590.3 459.989C591.25 459.989 592.097 460.213 592.841 460.659C593.593 461.099 594.181 461.698 594.606 462.456C595.039 463.215 595.255 464.069 595.255 465.019C595.255 465.976 595.014 466.844 594.532 467.624C594.057 468.396 593.419 469.013 592.618 469.474C591.824 469.928 590.952 470.154 590.002 470.154ZM590.002 468.017C590.555 468.017 591.058 467.883 591.512 467.613C591.966 467.344 592.327 466.982 592.597 466.529C592.866 466.075 593.001 465.572 593.001 465.019C593.001 464.466 592.866 463.963 592.597 463.509C592.334 463.055 591.976 462.694 591.523 462.424C591.069 462.155 590.566 462.02 590.013 462.02C589.46 462.02 588.953 462.155 588.492 462.424C588.039 462.694 587.677 463.055 587.408 463.509C587.138 463.963 587.004 464.466 587.004 465.019C587.004 465.565 587.138 466.064 587.408 466.518C587.677 466.972 588.039 467.337 588.492 467.613C588.946 467.883 589.449 468.017 590.002 468.017ZM602.881 454.524H605.124L601.041 469.835H598.798L602.881 454.524ZM608.537 469.825L608.547 467.847L615.214 461.871C615.753 461.396 616.118 460.943 616.309 460.51C616.508 460.078 616.607 459.646 616.607 459.213C616.607 458.667 616.486 458.178 616.245 457.746C616.004 457.306 615.671 456.959 615.246 456.704C614.821 456.449 614.332 456.321 613.779 456.321C613.212 456.321 612.705 456.456 612.258 456.725C611.819 456.987 611.475 457.338 611.227 457.778C610.979 458.217 610.858 458.692 610.865 459.203H608.59C608.59 458.21 608.813 457.342 609.26 456.597C609.713 455.846 610.334 455.261 611.12 454.843C611.907 454.418 612.808 454.205 613.821 454.205C614.785 454.205 615.65 454.425 616.416 454.864C617.181 455.297 617.784 455.892 618.223 456.651C618.67 457.409 618.893 458.274 618.893 459.245C618.893 459.947 618.801 460.542 618.617 461.031C618.432 461.521 618.156 461.974 617.787 462.392C617.419 462.811 616.958 463.264 616.405 463.753L611.259 468.347L611.014 467.709H618.893V469.825H608.537ZM627.408 470.154C626.409 470.154 625.523 469.956 624.75 469.559C623.984 469.155 623.382 468.595 622.942 467.879C622.51 467.163 622.294 466.334 622.294 465.391C622.294 464.512 622.499 463.707 622.91 462.977C623.322 462.247 623.935 461.673 624.75 461.255L624.707 462.02C624.055 461.616 623.552 461.113 623.198 460.51C622.85 459.901 622.677 459.22 622.677 458.469C622.677 457.597 622.879 456.842 623.283 456.204C623.687 455.566 624.243 455.073 624.952 454.726C625.668 454.379 626.487 454.205 627.408 454.205C628.33 454.205 629.145 454.379 629.854 454.726C630.563 455.073 631.119 455.566 631.523 456.204C631.927 456.842 632.129 457.597 632.129 458.469C632.129 459.22 631.963 459.897 631.629 460.5C631.296 461.102 630.786 461.609 630.098 462.02L630.066 461.276C630.875 461.673 631.488 462.24 631.906 462.977C632.324 463.707 632.533 464.512 632.533 465.391C632.533 466.334 632.314 467.163 631.874 467.879C631.435 468.595 630.828 469.155 630.056 469.559C629.283 469.956 628.401 470.154 627.408 470.154ZM627.408 468.038C628.23 468.038 628.897 467.815 629.407 467.369C629.918 466.915 630.173 466.256 630.173 465.391C630.173 464.526 629.918 463.867 629.407 463.413C628.904 462.952 628.238 462.722 627.408 462.722C626.579 462.722 625.909 462.952 625.399 463.413C624.895 463.867 624.644 464.526 624.644 465.391C624.644 466.256 624.899 466.915 625.409 467.369C625.92 467.815 626.586 468.038 627.408 468.038ZM627.408 460.595C628.11 460.595 628.677 460.422 629.109 460.074C629.549 459.72 629.769 459.185 629.769 458.469C629.769 457.753 629.549 457.218 629.109 456.863C628.677 456.502 628.11 456.321 627.408 456.321C626.706 456.321 626.136 456.502 625.696 456.863C625.257 457.218 625.037 457.753 625.037 458.469C625.037 459.185 625.257 459.72 625.696 460.074C626.136 460.422 626.706 460.595 627.408 460.595Z" fill="white"/>
<g clip-path="url(#clip0_141_2014)">
<path d="M779.948 257.722C783.281 263.495 785.036 270.043 785.036 276.709C785.036 283.375 783.281 289.923 779.948 295.696M771.594 261.899C774.194 266.402 775.562 271.51 775.562 276.709C775.562 281.908 774.194 287.016 771.594 291.519M763.619 265.734C765.499 269.025 766.489 272.758 766.489 276.557C766.489 280.357 765.499 284.089 763.619 287.38M755.645 269.874C756.999 271.924 757.718 274.292 757.718 276.709C757.718 279.126 756.999 281.494 755.645 283.544" stroke="white" stroke-width="4.55696" stroke-linecap="round"/>
</g>
<g clip-path="url(#clip1_141_2014)">
<rect x="689.355" y="80" width="560" height="336.709" rx="28.3544" transform="rotate(30 689.355 80)" fill="black" fill-opacity="0.1"/>
<rect x="689.355" y="80" width="560" height="336.709" rx="28.3544" transform="rotate(30 689.355 80)" fill="url(#paint2_linear_141_2014)"/>
<path d="M569.027 356.208L577.604 341.352L573.107 341.457L574.759 338.596L579.235 338.528L581.85 340.038L571.642 357.718L569.027 356.208ZM579.504 362.241L580.835 359.964L592.517 357.508C593.456 357.319 594.18 357.039 594.689 356.667C595.206 356.3 595.609 355.867 595.898 355.367C596.261 354.737 596.448 354.092 596.458 353.432C596.473 352.764 596.32 352.141 595.999 351.563C595.678 350.984 595.198 350.511 594.56 350.142C593.905 349.764 593.23 349.582 592.535 349.595C591.852 349.605 591.221 349.781 590.642 350.123C590.062 350.465 589.607 350.933 589.275 351.527L586.647 350.01C587.309 348.864 588.145 348.011 589.157 347.449C590.182 346.884 591.288 346.622 592.476 346.664C593.668 346.697 594.849 347.052 596.019 347.727C597.133 348.37 597.985 349.2 598.576 350.218C599.171 351.228 599.47 352.317 599.472 353.486C599.482 354.66 599.163 355.807 598.516 356.928C598.048 357.739 597.545 358.365 597.006 358.807C596.467 359.249 595.845 359.588 595.141 359.825C594.436 360.063 593.602 360.279 592.637 360.475L583.633 362.349L583.776 361.449L592.873 366.702L591.463 369.145L579.504 362.241ZM602.84 376.172C601.964 375.666 601.236 375.028 600.656 374.256C600.08 373.476 599.687 372.616 599.477 371.676C599.275 370.741 599.288 369.783 599.516 368.801L602.393 369.546C602.191 370.444 602.267 371.268 602.62 372.017C602.977 372.759 603.519 373.333 604.244 373.741C604.895 374.106 605.551 374.283 606.213 374.272C606.874 374.261 607.488 374.086 608.054 373.747C608.626 373.401 609.1 372.9 609.478 372.245C610.045 371.263 610.206 370.275 609.961 369.282C609.724 368.294 609.114 367.516 608.132 366.949C607.854 366.789 607.544 366.664 607.202 366.576C606.868 366.492 606.536 366.443 606.207 366.427L606.174 363.707L615.593 361.795L615.438 362.688L606.844 357.726L608.254 355.282L618.887 361.421L617.476 363.864L609.417 365.858L609.875 365.009C610.988 365.651 611.81 366.459 612.34 367.431C612.875 368.394 613.118 369.429 613.068 370.536C613.031 371.639 612.711 372.714 612.106 373.762C611.454 374.891 610.609 375.741 609.571 376.309C608.542 376.883 607.437 377.161 606.256 377.146C605.084 377.134 603.945 376.81 602.84 376.172ZM623.309 387.547L625.088 384.466L617.107 379.858L618.511 377.427L631.282 368.577L634.216 370.271L621.445 379.121L626.492 382.035L629.256 377.246L631.859 378.749L629.095 383.538L630.85 384.551L629.447 386.982L627.691 385.969L625.912 389.05L623.309 387.547ZM645.979 400.636L654.557 385.78L650.06 385.885L651.711 383.024L656.187 382.956L658.802 384.466L648.595 402.146L645.979 400.636ZM656.456 406.669L657.787 404.392L669.469 401.937C670.408 401.747 671.132 401.467 671.641 401.095C672.159 400.728 672.561 400.295 672.85 399.796C673.214 399.166 673.401 398.521 673.411 397.861C673.425 397.192 673.272 396.569 672.951 395.991C672.63 395.413 672.15 394.939 671.512 394.571C670.857 394.193 670.182 394.01 669.487 394.024C668.805 394.033 668.174 394.209 667.594 394.552C667.015 394.894 666.559 395.362 666.227 395.956L663.599 394.439C664.261 393.293 665.098 392.439 666.11 391.877C667.134 391.312 668.24 391.05 669.428 391.092C670.62 391.125 671.801 391.48 672.972 392.156C674.085 392.799 674.937 393.629 675.528 394.647C676.124 395.656 676.423 396.746 676.424 397.914C676.434 399.088 676.116 400.235 675.468 401.357C675 402.167 674.497 402.793 673.958 403.235C673.419 403.677 672.798 404.017 672.093 404.254C671.389 404.491 670.554 404.708 669.59 404.904L660.585 406.777L660.728 405.877L669.826 411.13L668.415 413.573L656.456 406.669ZM679.792 420.6C678.917 420.095 678.189 419.456 677.608 418.684C677.033 417.905 676.639 417.045 676.429 416.105C676.227 415.169 676.24 414.211 676.468 413.23L679.345 413.974C679.143 414.872 679.219 415.696 679.572 416.446C679.93 417.187 680.471 417.762 681.196 418.169C681.847 418.534 682.504 418.711 683.165 418.7C683.826 418.689 684.44 418.514 685.007 418.176C685.578 417.829 686.053 417.328 686.431 416.673C686.998 415.691 687.159 414.704 686.913 413.711C686.676 412.722 686.067 411.945 685.084 411.378C684.806 411.217 684.496 411.093 684.154 411.004C683.82 410.921 683.489 410.871 683.159 410.856L683.126 408.135L692.546 406.223L692.39 407.116L683.796 402.154L685.207 399.711L695.839 405.85L694.429 408.293L686.369 410.286L686.827 409.437C687.94 410.08 688.762 410.887 689.292 411.859C689.827 412.823 690.07 413.858 690.02 414.964C689.984 416.067 689.663 417.143 689.058 418.19C688.406 419.32 687.561 420.169 686.523 420.738C685.494 421.311 684.389 421.59 683.208 421.574C682.036 421.563 680.897 421.238 679.792 420.6ZM700.261 431.976L702.04 428.894L694.06 424.287L695.463 421.856L708.234 413.006L711.169 414.7L698.398 423.55L703.444 426.463L706.208 421.675L708.811 423.178L706.047 427.966L707.802 428.98L706.399 431.411L704.643 430.397L702.864 433.479L700.261 431.976ZM722.932 445.065L731.509 430.209L727.012 430.313L728.664 427.453L733.139 427.385L735.754 428.895L725.547 446.575L722.932 445.065ZM733.409 451.097L734.739 448.821L746.421 446.365C747.36 446.176 748.084 445.895 748.593 445.524C749.111 445.157 749.514 444.724 749.802 444.224C750.166 443.594 750.353 442.949 750.363 442.289C750.377 441.621 750.224 440.998 749.903 440.419C749.582 439.841 749.103 439.368 748.464 438.999C747.809 438.621 747.134 438.439 746.439 438.452C745.757 438.462 745.126 438.638 744.546 438.98C743.967 439.322 743.511 439.79 743.179 440.384L740.552 438.867C741.213 437.721 742.05 436.867 743.062 436.306C744.087 435.741 745.193 435.479 746.38 435.52C747.572 435.554 748.753 435.908 749.924 436.584C751.037 437.227 751.889 438.057 752.48 439.075C753.076 440.085 753.375 441.174 753.377 442.343C753.387 443.516 753.068 444.664 752.42 445.785C751.953 446.596 751.449 447.222 750.91 447.664C750.371 448.105 749.75 448.445 749.045 448.682C748.341 448.919 747.506 449.136 746.542 449.332L737.537 451.205L737.68 450.306L746.778 455.558L745.367 458.002L733.409 451.097ZM756.745 465.029C755.869 464.523 755.141 463.884 754.56 463.113C753.985 462.333 753.592 461.473 753.381 460.533C753.179 459.598 753.192 458.64 753.421 457.658L756.298 458.403C756.096 459.301 756.171 460.125 756.524 460.874C756.882 461.616 757.423 462.19 758.148 462.598C758.8 462.963 759.456 463.14 760.117 463.129C760.778 463.118 761.392 462.943 761.959 462.604C762.53 462.257 763.005 461.757 763.383 461.102C763.95 460.119 764.111 459.132 763.866 458.139C763.628 457.151 763.019 456.373 762.037 455.806C761.758 455.646 761.448 455.521 761.106 455.433C760.773 455.349 760.441 455.3 760.112 455.284L760.078 452.564L769.498 450.652L769.343 451.544L760.748 446.582L762.159 444.139L772.791 450.278L771.381 452.721L763.322 454.715L763.779 453.866C764.892 454.508 765.714 455.316 766.244 456.287C766.779 457.251 767.022 458.286 766.973 459.393C766.936 460.496 766.615 461.571 766.01 462.619C765.358 463.748 764.513 464.597 763.476 465.166C762.446 465.739 761.341 466.018 760.161 466.002C758.988 465.991 757.85 465.667 756.745 465.029ZM777.213 476.404L778.993 473.323L771.012 468.715L772.416 466.284L785.186 457.434L788.121 459.128L775.35 467.978L780.396 470.892L783.161 466.103L785.764 467.606L782.999 472.394L784.755 473.408L783.351 475.839L781.595 474.825L779.816 477.907L777.213 476.404ZM799.884 489.493L808.461 474.637L803.964 474.742L805.616 471.881L810.092 471.813L812.707 473.323L802.499 491.003L799.884 489.493ZM810.361 495.526L811.692 493.249L823.374 490.794C824.312 490.604 825.036 490.324 825.546 489.952C826.063 489.585 826.466 489.152 826.754 488.653C827.118 488.022 827.305 487.377 827.315 486.717C827.33 486.049 827.177 485.426 826.856 484.848C826.535 484.27 826.055 483.796 825.416 483.428C824.762 483.05 824.087 482.867 823.391 482.88C822.709 482.89 822.078 483.066 821.499 483.408C820.919 483.75 820.463 484.219 820.131 484.813L817.504 483.296C818.165 482.15 819.002 481.296 820.014 480.734C821.039 480.169 822.145 479.907 823.332 479.949C824.524 479.982 825.706 480.337 826.876 481.013C827.989 481.655 828.841 482.486 829.432 483.503C830.028 484.513 830.327 485.602 830.329 486.771C830.339 487.945 830.02 489.092 829.373 490.214C828.905 491.024 828.402 491.65 827.863 492.092C827.324 492.534 826.702 492.873 825.998 493.111C825.293 493.348 824.459 493.564 823.494 493.761L814.489 495.634L814.632 494.734L823.73 499.987L822.32 502.43L810.361 495.526ZM833.697 509.457C832.821 508.951 832.093 508.313 831.513 507.541C830.937 506.761 830.544 505.902 830.334 504.962C830.131 504.026 830.145 503.068 830.373 502.087L833.25 502.831C833.048 503.729 833.123 504.553 833.476 505.303C833.834 506.044 834.375 506.618 835.101 507.026C835.752 507.391 836.408 507.568 837.069 507.557C837.731 507.546 838.345 507.371 838.911 507.033C839.482 506.686 839.957 506.185 840.335 505.53C840.902 504.548 841.063 503.56 840.818 502.567C840.581 501.579 839.971 500.802 838.989 500.235C838.711 500.074 838.4 499.949 838.059 499.861C837.725 499.778 837.393 499.728 837.064 499.713L837.03 496.992L846.45 495.08L846.295 495.973L837.701 491.011L839.111 488.568L849.744 494.706L848.333 497.15L840.274 499.143L840.731 498.294C841.845 498.937 842.666 499.744 843.197 500.716C843.732 501.679 843.974 502.715 843.925 503.821C843.888 504.924 843.567 505.999 842.963 507.047C842.31 508.177 841.466 509.026 840.428 509.594C839.398 510.168 838.293 510.447 837.113 510.431C835.941 510.42 834.802 510.095 833.697 509.457ZM854.166 520.833L855.945 517.751L847.964 513.143L849.368 510.712L862.139 501.862L865.073 503.557L852.302 512.407L857.348 515.32L860.113 510.532L862.716 512.034L859.951 516.823L861.707 517.836L860.303 520.267L858.548 519.254L856.768 522.335L854.166 520.833Z" fill="white"/>
<path d="M595.658 314.757C594.332 313.992 593.369 313.051 592.769 311.935C592.173 310.813 591.925 309.59 592.027 308.266C592.135 306.945 592.584 305.6 593.374 304.231C594.165 302.862 595.105 301.8 596.195 301.046C597.291 300.296 598.473 299.901 599.739 299.863C601.009 299.819 602.307 300.179 603.633 300.945C604.953 301.707 605.911 302.649 606.507 303.771C607.113 304.89 607.362 306.11 607.254 307.431C607.147 308.752 606.697 310.097 605.907 311.466C605.117 312.835 604.176 313.897 603.086 314.651C601.996 315.405 600.813 315.802 599.537 315.843C598.271 315.881 596.978 315.519 595.658 314.757ZM596.716 312.925C597.648 313.479 598.547 313.724 599.411 313.658C600.285 313.59 601.099 313.266 601.851 312.685C602.608 312.099 603.278 311.299 603.863 310.286C604.448 309.273 604.801 308.299 604.924 307.363C605.051 306.421 604.923 305.557 604.542 304.772C604.166 303.991 603.51 303.326 602.575 302.777C601.643 302.223 600.741 301.976 599.87 302.039C599.006 302.104 598.195 302.43 597.439 303.017C596.683 303.603 596.01 304.401 595.419 305.411C594.828 306.42 594.469 307.396 594.343 308.338C594.22 309.274 594.349 310.134 594.731 310.919C595.119 311.708 595.78 312.376 596.716 312.925ZM605.021 319.795L612.677 306.535L614.601 307.646L607.993 319.092L613.997 322.558L612.949 324.372L605.021 319.795ZM615.618 325.913L623.274 312.653L625.198 313.764L617.542 327.024L615.618 325.913ZM624.341 330.949L627.687 315.201L629.685 316.355L626.826 329.793L637.08 320.624L639.078 321.777L627.113 332.549L624.341 330.949ZM633.916 336.477L641.572 323.217L643.496 324.328L635.84 337.588L633.916 336.477ZM638.606 339.185L650.571 328.413L653.343 330.013L649.996 345.761L647.998 344.608L651.015 330.216L651.512 330.504L640.604 340.339L638.606 339.185ZM642.571 337.484L643.613 335.679L650.538 339.677L649.496 341.482L642.571 337.484ZM657.177 349.907L664.833 336.647L670.192 339.741C670.321 339.816 670.477 339.914 670.66 340.036C670.847 340.152 671.017 340.275 671.172 340.405C671.841 340.947 672.31 341.553 672.577 342.223C672.851 342.897 672.941 343.6 672.846 344.331C672.752 345.062 672.499 345.784 672.088 346.496C671.478 347.552 670.681 348.307 669.698 348.763C668.718 349.212 667.633 349.22 666.443 348.786L665.607 348.427L661.85 346.257L659.102 351.018L657.177 349.907ZM664.931 354.384L665.431 347.478L667.661 348.102L667.131 355.654L664.931 354.384ZM662.903 344.434L666.264 346.375C666.387 346.446 666.525 346.517 666.68 346.59C666.84 346.667 666.997 346.728 667.15 346.776C667.596 346.91 668.009 346.924 668.391 346.817C668.775 346.703 669.114 346.514 669.406 346.249C669.698 345.984 669.938 345.689 670.126 345.363C670.314 345.038 670.448 344.685 670.528 344.306C670.611 343.92 670.604 343.536 670.507 343.152C670.412 342.762 670.196 342.408 669.856 342.089C669.742 341.974 669.612 341.866 669.466 341.765C669.325 341.668 669.194 341.584 669.071 341.513L665.71 339.572L662.903 344.434ZM670.076 357.354L677.732 344.094L679.656 345.205L676.355 350.924L682.985 354.752L686.286 349.033L688.22 350.15L680.564 363.41L678.631 362.293L681.937 356.566L675.307 352.738L672.001 358.465L670.076 357.354ZM687.267 367.28L690.431 361.801L690.439 351.431L692.685 352.728L692.683 360.154L699.113 356.439L701.36 357.736L692.383 362.928L689.219 368.407L687.267 367.28ZM695.91 372.269L703.566 359.009L712.037 363.901L710.99 365.715L704.443 361.935L702.295 365.655L707.737 368.797L706.69 370.611L701.248 367.469L698.882 371.567L705.429 375.347L704.382 377.161L695.91 372.269Z" fill="white"/>
<path d="M833.931 452.325C833.029 451.804 832.344 451.147 831.877 450.354C831.414 449.554 831.183 448.692 831.185 447.768C831.192 446.848 831.457 445.936 831.978 445.034L834.615 440.466C835.136 439.564 835.793 438.879 836.586 438.412C837.386 437.949 838.246 437.721 839.166 437.729C840.09 437.73 841.004 437.992 841.906 438.513C842.808 439.034 843.491 439.694 843.955 440.493C844.421 441.287 844.651 442.144 844.643 443.064C844.642 443.988 844.381 444.902 843.86 445.804L841.223 450.371C840.702 451.274 840.041 451.957 839.242 452.42C838.449 452.887 837.59 453.12 836.666 453.118C835.745 453.111 834.834 452.846 833.931 452.325ZM834.995 450.484C835.486 450.767 835.998 450.907 836.532 450.904C837.075 450.899 837.582 450.766 838.052 450.505C838.525 450.238 838.905 449.856 839.192 449.359L841.978 444.534C842.262 444.042 842.399 443.528 842.39 442.991C842.384 442.448 842.246 441.942 841.976 441.475C841.715 441.005 841.339 440.629 840.848 440.345C840.357 440.062 839.84 439.923 839.296 439.928C838.763 439.931 838.259 440.066 837.786 440.333C837.316 440.594 836.939 440.97 836.656 441.461L833.87 446.286C833.583 446.783 833.442 447.303 833.447 447.847C833.456 448.384 833.591 448.888 833.852 449.357C834.123 449.825 834.503 450.2 834.995 450.484ZM846.604 459.642C845.744 459.145 845.088 458.496 844.634 457.694C844.184 456.886 843.962 456.009 843.968 455.063C843.98 454.12 844.249 453.195 844.773 452.286L847.213 448.06C847.77 447.096 848.458 446.364 849.279 445.864C850.106 445.367 850.993 445.122 851.939 445.128C852.891 445.137 853.834 445.411 854.767 445.95C855.466 446.354 856.047 446.865 856.509 447.484C856.97 448.102 857.274 448.802 857.421 449.582L855.252 450.085C855.188 449.615 855.021 449.174 854.75 448.764C854.489 448.352 854.144 448.021 853.714 447.773C853.161 447.454 852.6 447.306 852.03 447.329C851.464 447.346 850.939 447.497 850.455 447.782C849.977 448.071 849.598 448.458 849.318 448.943L847.915 451.374L847.782 450.733C848.449 450.455 849.149 450.335 849.88 450.373C850.612 450.41 851.3 450.615 851.944 450.987C852.767 451.462 853.389 452.079 853.81 452.838C854.241 453.594 854.451 454.407 854.44 455.277C854.435 456.15 854.196 456.998 853.721 457.82C853.242 458.649 852.599 459.281 851.792 459.715C850.994 460.147 850.133 460.362 849.209 460.36C848.295 460.356 847.427 460.117 846.604 459.642ZM847.673 457.791C848.151 458.067 848.655 458.202 849.182 458.196C849.71 458.189 850.204 458.057 850.664 457.799C851.124 457.541 851.492 457.172 851.769 456.693C852.045 456.214 852.18 455.711 852.174 455.184C852.173 454.66 852.044 454.168 851.786 453.707C851.528 453.247 851.159 452.879 850.68 452.603C850.201 452.326 849.695 452.189 849.161 452.192C848.634 452.199 848.14 452.331 847.68 452.589C847.22 452.847 846.851 453.216 846.575 453.695C846.302 454.168 846.169 454.668 846.175 455.195C846.182 455.723 846.312 456.22 846.567 456.686C846.825 457.146 847.194 457.514 847.673 457.791ZM865.572 452.545L867.515 453.666L856.323 464.885L854.38 463.763L865.572 452.545ZM862.82 468.623L863.818 466.916L872.58 465.074C873.284 464.932 873.827 464.722 874.209 464.443C874.597 464.168 874.899 463.843 875.115 463.469C875.388 462.996 875.528 462.512 875.536 462.017C875.547 461.516 875.432 461.049 875.191 460.615C874.95 460.181 874.591 459.826 874.112 459.55C873.621 459.266 873.114 459.13 872.593 459.14C872.081 459.147 871.608 459.279 871.173 459.535C870.739 459.792 870.397 460.143 870.148 460.589L868.177 459.451C868.673 458.591 869.301 457.951 870.06 457.53C870.828 457.106 871.658 456.91 872.549 456.941C873.443 456.966 874.329 457.232 875.206 457.739C876.041 458.221 876.68 458.843 877.124 459.607C877.571 460.364 877.795 461.181 877.796 462.058C877.803 462.938 877.564 463.798 877.079 464.639C876.728 465.247 876.35 465.717 875.946 466.048C875.542 466.38 875.076 466.634 874.548 466.812C874.019 466.99 873.393 467.153 872.67 467.3L865.916 468.705L866.024 468.03L872.847 471.969L871.789 473.802L862.82 468.623ZM878.999 478.345C878.133 477.845 877.465 477.23 876.994 476.5C876.533 475.767 876.291 474.981 876.269 474.141C876.252 473.305 876.48 472.479 876.951 471.662C877.391 470.901 877.971 470.307 878.692 469.88C879.413 469.453 880.231 469.263 881.146 469.308L880.727 469.95C880.364 469.274 880.18 468.586 880.174 467.887C880.178 467.186 880.368 466.51 880.744 465.859C881.18 465.104 881.732 464.551 882.401 464.201C883.07 463.85 883.798 463.702 884.586 463.755C885.379 463.812 886.175 464.071 886.973 464.532C887.771 464.993 888.39 465.551 888.831 466.206C889.271 466.861 889.506 467.566 889.537 468.321C889.568 469.075 889.366 469.83 888.93 470.585C888.554 471.236 888.071 471.739 887.482 472.094C886.892 472.449 886.196 472.633 885.395 472.645L885.74 471.985C886.241 472.733 886.489 473.53 886.482 474.378C886.479 475.219 886.258 476.021 885.819 476.782C885.347 477.598 884.742 478.207 884.004 478.607C883.265 479.007 882.46 479.189 881.589 479.153C880.721 479.11 879.858 478.841 878.999 478.345ZM880.056 476.512C880.769 476.923 881.457 477.063 882.123 476.932C882.791 476.794 883.342 476.351 883.774 475.602C884.207 474.853 884.315 474.154 884.1 473.506C883.895 472.855 883.433 472.323 882.715 471.908C881.996 471.493 881.301 471.358 880.629 471.502C879.966 471.643 879.419 472.088 878.986 472.837C878.554 473.586 878.445 474.285 878.66 474.933C878.879 475.575 879.344 476.101 880.056 476.512ZM883.778 470.066C884.386 470.417 884.964 470.55 885.512 470.466C886.07 470.379 886.528 470.025 886.886 469.405C887.244 468.785 887.321 468.212 887.117 467.685C886.924 467.156 886.523 466.716 885.915 466.365C885.307 466.014 884.723 465.885 884.162 465.978C883.604 466.066 883.146 466.419 882.788 467.039C882.43 467.659 882.353 468.233 882.556 468.759C882.763 469.28 883.17 469.716 883.778 470.066Z" fill="white"/>
<path d="M712.158 141.456L715.393 143.324L708.657 154.991C707.918 156.27 706.967 157.221 705.802 157.842C704.642 158.468 703.361 158.739 701.959 158.658C700.559 158.571 699.133 158.108 697.68 157.269C696.221 156.427 695.104 155.421 694.329 154.253C693.557 153.079 693.152 151.834 693.114 150.517C693.076 149.201 693.426 147.903 694.164 146.624L700.9 134.957L704.135 136.824L697.555 148.221C697.126 148.966 696.906 149.722 696.896 150.492C696.891 151.264 697.093 151.989 697.501 152.666C697.911 153.337 698.527 153.91 699.346 154.383C700.166 154.856 700.969 155.103 701.756 155.123C702.552 155.141 703.28 154.953 703.942 154.559C704.603 154.166 705.148 153.597 705.578 152.853L712.158 141.456ZM716.147 157.107L711.616 164.955L708.459 163.132L716.192 149.738L719.209 151.48L717.895 153.756L718.052 153.847C718.793 153.275 719.629 152.962 720.558 152.91C721.493 152.861 722.461 153.125 723.461 153.702C724.385 154.236 725.076 154.898 725.534 155.69C725.997 156.484 726.202 157.366 726.147 158.334C726.097 159.305 725.761 160.324 725.138 161.391L720.214 169.919L717.057 168.096L721.699 160.056C722.216 159.161 722.388 158.326 722.215 157.552C722.047 156.781 721.557 156.161 720.743 155.691C720.191 155.372 719.629 155.21 719.058 155.206C718.496 155.2 717.962 155.352 717.456 155.665C716.956 155.981 716.519 156.461 716.147 157.107ZM737.844 162.239L736.434 164.681L728.735 160.235L730.144 157.793L737.844 162.239ZM733.898 155.682L737.055 157.504L729.795 170.079C729.55 170.503 729.426 170.866 729.423 171.166C729.429 171.464 729.516 171.716 729.684 171.922C729.852 172.127 730.067 172.306 730.329 172.457C730.526 172.571 730.715 172.66 730.895 172.725C731.08 172.793 731.223 172.841 731.324 172.868L730.431 175.643C730.229 175.604 729.95 175.529 729.596 175.417C729.248 175.309 728.846 175.131 728.392 174.885C727.588 174.451 726.945 173.921 726.462 173.294C725.983 172.66 725.718 171.957 725.668 171.184C725.624 170.415 725.847 169.613 726.336 168.779L733.898 155.682ZM732.751 177.157L740.484 163.763L743.641 165.586L735.908 178.98L732.751 177.157ZM743.169 162.778C742.669 162.49 742.334 162.076 742.165 161.536C741.999 160.991 742.052 160.483 742.324 160.012C742.599 159.535 743.013 159.235 743.565 159.112C744.12 158.983 744.647 159.063 745.147 159.351C745.653 159.643 745.986 160.06 746.146 160.602C746.315 161.142 746.262 161.65 745.987 162.127C745.715 162.597 745.301 162.897 744.746 163.026C744.2 163.153 743.674 163.07 743.169 162.778ZM753.575 171.321L752.165 173.763L744.466 169.317L745.875 166.876L753.575 171.321ZM749.629 164.764L752.786 166.587L745.526 179.161C745.281 179.585 745.157 179.948 745.154 180.248C745.16 180.547 745.247 180.798 745.415 181.004C745.583 181.21 745.798 181.388 746.06 181.539C746.257 181.653 746.446 181.743 746.626 181.807C746.811 181.876 746.954 181.923 747.055 181.95L746.162 184.725C745.96 184.686 745.681 184.611 745.327 184.499C744.979 184.391 744.577 184.214 744.123 183.967C743.319 183.534 742.676 183.003 742.193 182.376C741.714 181.743 741.449 181.04 741.399 180.267C741.355 179.497 741.578 178.696 742.067 177.862L749.629 164.764ZM762.237 170.369L751.926 188.228L748.77 186.406L759.08 168.547L762.237 170.369ZM760.951 193.787C759.608 193.012 758.609 192.063 757.955 190.941C757.31 189.817 757.023 188.589 757.093 187.258C757.168 185.921 757.609 184.552 758.418 183.151C759.214 181.774 760.173 180.715 761.297 179.977C762.43 179.236 763.639 178.848 764.922 178.814C766.208 178.774 767.491 179.123 768.77 179.862C769.596 180.338 770.297 180.922 770.875 181.612C771.463 182.3 771.879 183.083 772.124 183.96C772.375 184.842 772.416 185.804 772.248 186.846C772.084 187.883 771.663 188.988 770.985 190.163L770.426 191.13L759.447 184.792L760.676 182.664L768.629 187.256C768.972 186.648 769.151 186.035 769.168 185.416C769.187 184.792 769.046 184.21 768.744 183.672C768.449 183.137 767.999 182.695 767.394 182.346C766.749 181.973 766.091 181.803 765.422 181.835C764.755 181.861 764.14 182.048 763.575 182.396C763.018 182.742 762.565 183.212 762.213 183.808L761.141 185.665C760.691 186.444 760.448 187.195 760.41 187.917C760.376 188.634 760.529 189.288 760.87 189.88C761.214 190.466 761.728 190.957 762.414 191.353C762.874 191.618 763.326 191.794 763.772 191.881C764.221 191.963 764.656 191.954 765.077 191.856C765.498 191.758 765.888 191.56 766.245 191.263L769.001 193.296C768.366 193.968 767.618 194.443 766.759 194.722C765.91 194.999 764.989 195.064 763.996 194.917C763.007 194.765 761.992 194.388 760.951 193.787ZM774.563 201.611C773.511 201.004 772.725 200.19 772.206 199.169C771.687 198.148 771.483 196.984 771.594 195.677C771.706 194.369 772.186 192.98 773.035 191.509C773.895 190.021 774.864 188.906 775.943 188.165C777.031 187.421 778.145 187.03 779.284 186.99C780.427 186.944 781.512 187.218 782.541 187.812C783.326 188.265 783.894 188.772 784.246 189.331C784.6 189.885 784.818 190.433 784.9 190.976C784.985 191.514 785.015 191.992 784.99 192.412L785.121 192.487L788.977 185.808L792.143 187.635L781.832 205.494L778.727 203.702L779.946 201.591L779.754 201.481C779.403 201.712 778.968 201.922 778.449 202.111C777.932 202.293 777.348 202.366 776.694 202.33C776.041 202.294 775.33 202.054 774.563 201.611ZM776.939 199.53C777.607 199.916 778.281 200.064 778.96 199.976C779.642 199.881 780.294 199.579 780.914 199.069C781.534 198.559 782.094 197.871 782.594 197.005C783.094 196.138 783.407 195.315 783.532 194.535C783.663 193.758 783.595 193.056 783.329 192.429C783.068 191.806 782.598 191.298 781.918 190.906C781.215 190.5 780.522 190.344 779.839 190.438C779.157 190.532 778.51 190.833 777.9 191.341C777.289 191.849 776.743 192.518 776.263 193.35C775.78 194.187 775.468 195.003 775.327 195.797C775.195 196.589 775.256 197.31 775.508 197.96C775.77 198.607 776.247 199.13 776.939 199.53ZM787.029 208.751C786.5 208.445 786.154 207.997 785.991 207.407C785.828 206.817 785.904 206.256 786.219 205.725C786.515 205.198 786.959 204.858 787.552 204.704C788.145 204.55 788.705 204.626 789.234 204.931C789.746 205.226 790.083 205.669 790.246 206.26C790.415 206.853 790.352 207.413 790.055 207.94C789.845 208.291 789.566 208.56 789.218 208.747C788.875 208.937 788.509 209.035 788.117 209.041C787.735 209.045 787.372 208.949 787.029 208.751Z" fill="white"/>
<g clip-path="url(#clip2_141_2014)">
<path d="M1117.32 370.643C1117.32 377.309 1115.56 383.857 1112.23 389.63C1108.9 395.403 1104.1 400.197 1098.33 403.53M1108 370.083C1108 375.282 1106.63 380.39 1104.03 384.893C1101.43 389.396 1097.69 393.135 1093.19 395.735M1099.17 369.417C1099.15 373.207 1098.14 376.934 1096.25 380.225C1094.35 383.515 1091.62 386.253 1088.35 388.163M1090.2 369.015C1090.34 371.468 1089.78 373.878 1088.57 375.971C1087.36 378.064 1085.56 379.756 1083.36 380.854" stroke="white" stroke-width="4.55696" stroke-linecap="round"/>
</g>
</g>
<rect x="689.68" y="81.2104" width="558.228" height="334.937" rx="27.4684" transform="rotate(30 689.68 81.2104)" stroke="url(#paint3_linear_141_2014)" stroke-opacity="0.3" stroke-width="1.77215"/>
<defs>
<linearGradient id="paint0_linear_141_2014" x1="263.991" y1="556.707" x2="561.382" y2="62.0973" gradientUnits="userSpaceOnUse">
<stop stop-color="#42307D"/>
<stop offset="1" stop-color="#6941C6"/>
</linearGradient>
<linearGradient id="paint1_linear_141_2014" x1="264" y1="234.218" x2="811.209" y2="577.121" gradientUnits="userSpaceOnUse">
<stop stop-color="white"/>
<stop offset="1" stop-color="white" stop-opacity="0.2"/>
</linearGradient>
<linearGradient id="paint2_linear_141_2014" x1="717.333" y1="80" x2="1294.26" y2="485.51" gradientUnits="userSpaceOnUse">
<stop stop-color="white" stop-opacity="0.3"/>
<stop offset="1" stop-color="white" stop-opacity="0"/>
</linearGradient>
<linearGradient id="paint3_linear_141_2014" x1="689.355" y1="94.218" x2="1236.56" y2="437.121" gradientUnits="userSpaceOnUse">
<stop stop-color="white"/>
<stop offset="1" stop-color="white" stop-opacity="0.2"/>
</linearGradient>
<clipPath id="clip0_141_2014">
<rect width="35.443" height="42.5316" fill="white" transform="translate(753.113 255.443)"/>
</clipPath>
<clipPath id="clip1_141_2014">
<rect x="689.355" y="80" width="560" height="336.709" rx="28.3544" transform="rotate(30 689.355 80)" fill="white"/>
</clipPath>
<clipPath id="clip2_141_2014">
<rect width="35.443" height="42.5316" fill="white" transform="translate(1095.22 355.251) rotate(30)"/>
</clipPath>
</defs>
</svg>
